# xmcd
#
# Track frame offsets: 
#        150
#        22497
#        40369
#        57682
#        78630
#        101040
#        121735
#        142373
#        164041
#        180612
#
# Disc length: 2698 seconds
#
# Revision: 1
# Processed by: cddbd v1.5.2PL0 Copyright (c) Steve Scherf et al.
# Submitted via: ExactAudioCopyFreeDBPlugin 1.0
#
DISCID=9e0a880a
DTITLE=蘇永康 - 愛上一個人永遠不會太遲
DYEAR=1996
DGENRE=Pop
TTITLE0=如果這是我愛你最好的距離
TTITLE1=愛上一個人永遠不會太遲
TTITLE2=平衡點
TTITLE3=同情的罪
TTITLE4=不要說我愛的不是時候
TTITLE5=SORRY
TTITLE6=螞蟻
TTITLE7=愛要來得及
TTITLE8=句點
TTITLE9=傻子
EXTD=
EXTT0=
EXTT1=
EXTT2=
EXTT3=
EXTT4=
EXTT5=
EXTT6=
EXTT7=
EXTT8=
EXTT9=
PLAYORDER=
